<svg version="1.2" xmlns="http://www.w3.org/2000/svg" viewBox="0 0 292 86" width="292" height="86"><style>.a{fill:#9d9fa2}</style><path fill-rule="evenodd" class="a" d="m69.3 29.1c1 4.5 1.5 8.9 1.5 13 0 10.4-2.1 19.4-6.4 26.8-5.9 10.2-15.2 15.4-27.5 15.4h-25.8c-5.2 0-9.4-4.3-9.4-9.4v-61.8c0-5.2 4.2-9.4 9.4-9.4h25.8c5 0 9.1 0.6 12.4 1.7h0.1c5.8 1.9 10.5 5.5 14.1 10.6 2.8 4 4.8 8.4 5.8 13.1zm-23.1-2.1c-1.9-3.2-5.8-4.8-12-4.8h-11.7v43.5h11.7c6.3 0 10.5-2.9 13-9.2 1.4-3.7 2.2-8.2 2.2-13.3 0-7.1-1.1-12.6-3.2-16.2zm52.2 38.3h41.6v19h-62.4v-80.6h60.5v18.7h-39.7v10.5h36.5v18.5h-36.5zm112.4-5.7c0 7.7-3 14.2-8.9 19.2-5.8 5-14 7.5-24.3 7.5-10.5 0-18.9-2.5-25-7.3-6.3-5-9.5-11.9-9.5-20.6v-2.7h20.1l0.3 2.3q0.6 4.4 2.2 6.3c2.1 2.5 5.9 3.7 11.3 3.7 3.5 0 6.3-0.4 8.3-1.1 4.3-1.5 4.9-4 4.9-6.1 0-1.5-0.6-2.6-2-3.4-1.9-1.2-5.1-2.2-9.6-3.2l-8.1-1.8c-8.4-1.8-14.1-3.8-17.5-6.2-5.8-4-8.7-10.2-8.7-18.5 0-7.5 2.8-13.8 8.3-18.8 5.4-4.9 13.4-7.4 23.7-7.4 8.5 0 16 2.3 22.1 6.9 6.3 4.7 9.7 11.5 10 20.4l0.1 2.8h-20.5l-0.2-2.6c-0.2-3.5-1.6-5.9-4.5-7.3-2.1-1.1-4.9-1.6-8.1-1.6-3.6 0-6.4 0.6-8.4 2-1.8 1.1-2.5 2.5-2.5 4.5 0 1.7 0.6 2.8 2.2 3.6 0.8 0.5 3 1.4 9.3 2.9l13.2 3.1c6.2 1.4 10.8 3.4 14.1 5.9 5.1 4.1 7.7 10 7.7 17.5zm46-22l34.3 46.7h-27.1l-22-31.2-4.5 4.5v26.7h-20.9v-80.6h20.9v26.8l25.1-26.8h28.1z"/></svg>