<svg version="1.2" xmlns="http://www.w3.org/2000/svg" viewBox="0 0 746 88" width="746" height="88"><style>.a{fill:#9d9fa2}</style><path fill-rule="evenodd" class="a" d="m75 15.9c19.6-1.8 36.1 13.7 36.1 32.9v31c0 3.6-2.9 6.5-6.5 6.5h-53c-3.6 0-6.5-2.9-6.5-6.5v-30.2c0-17.2 12.8-32.1 29.9-33.7zm-16.9 32.9v23.2c0.2 0 0.4-0.1 0.7-0.1h39.3v-22.6c0-9.8-6.9-18.6-16.6-20.2-12.6-2.1-23.4 7.6-23.4 19.7z"/><path class="a" d="m103.9 1.4h-95.1c-4 0-7.3 3.2-7.3 7.2 0 4 3.3 7.2 7.3 7.2 3.9 0 7.2 3.2 7.2 7.2v56.1c0 4 3.2 7.2 7.2 7.2 4 0 7.2-3.2 7.2-7.2v-56.1c0-4 3.2-7.2 7.2-7.2h40.5 25.8c4 0 7.2-3.2 7.2-7.2 0-4-3.2-7.2-7.2-7.2z"/><path class="a" d="m186.4 22.4h3.8c5.2 0 9.4 4.3 9.4 9.4v43.1c0 5.1 4.2 9.4 9.4 9.4h2.5c5.2 0 9.4-4.3 9.4-9.4v-43.1c0-5.1 4.2-9.4 9.4-9.4h3.7c5.2 0 9.4-4.2 9.4-9.3 0-5.2-4.2-9.4-9.4-9.4h-47.6c-5.2 0-9.4 4.2-9.4 9.4 0 5.1 4.2 9.3 9.4 9.3z"/><path class="a" d="m317.9 47.4l-9-43.7h-21.1l-8.4 42.8-9.9-42.8h-22.5l22.9 80.6h18.9l9.5-46 9.4 46h19.4l22.7-80.6h-21.8z"/><path fill-rule="evenodd" class="a" d="m415.4 11c8 7.3 12.2 18.4 12.2 32.9 0 14.1-4.1 25.2-12.2 32.9-6.2 6.3-15.1 9.5-26.6 9.5-11.4 0-20.4-3.2-26.5-9.5-8.1-7.6-12.2-18.7-12.2-32.9 0-14.5 4.1-25.7 12.3-33.1 6-6.2 15-9.4 26.4-9.4 11.5 0 20.4 3.2 26.6 9.6zm-13.9 50.7c3.2-4.1 4.9-10.1 4.9-17.8 0-7.8-1.7-13.8-4.9-17.9-3.1-3.9-7.3-5.9-12.7-5.9-5.3 0-9.5 2-12.7 5.9-3.3 4.1-4.9 10.1-4.9 17.9 0 7.7 1.6 13.7 4.9 17.8 3.2 3.9 7.4 5.9 12.7 5.9 5.4 0 9.6-2 12.7-5.9z"/><path fill-rule="evenodd" class="a" d="m523.3 29.1c1 4.5 1.5 8.9 1.5 13 0 10.4-2.1 19.4-6.4 26.8-5.9 10.2-15.2 15.4-27.5 15.4h-25.8c-5.2 0-9.4-4.3-9.4-9.4v-61.8c0-5.2 4.2-9.4 9.4-9.4h25.8c5 0 9.1 0.6 12.4 1.7h0.1c5.8 1.9 10.5 5.5 14.1 10.6 2.8 4 4.8 8.4 5.8 13.1zm-23.1-2.1c-1.9-3.2-5.8-4.8-12-4.8h-11.7v43.5h11.7c6.3 0 10.5-2.9 13-9.2 1.4-3.7 2.2-8.2 2.2-13.3 0-7.1-1.1-12.6-3.2-16.2z"/><path class="a" d="m552.4 51.4h36.5v-18.5h-36.5v-10.5h39.7v-18.7h-60.5v80.6h62.4v-19h-41.6z"/><path class="a" d="m657.1 42.1c-3.3-2.6-7.9-4.5-14.1-6l-13.2-3.1c-6.3-1.5-8.5-2.4-9.3-2.9-1.6-0.8-2.2-1.9-2.2-3.6 0-2 0.7-3.4 2.5-4.5 2-1.3 4.8-2 8.4-2 3.2 0 6 0.5 8.1 1.6 2.9 1.4 4.3 3.8 4.5 7.3l0.2 2.6h20.5l-0.1-2.8c-0.3-8.9-3.7-15.7-10-20.4-6.1-4.5-13.6-6.8-22.1-6.8-10.3 0-18.3 2.4-23.7 7.3-5.5 5-8.3 11.4-8.3 18.8 0 8.3 2.9 14.6 8.7 18.6 3.4 2.3 9.1 4.3 17.5 6.1l8.1 1.8c4.5 1 7.7 2.1 9.6 3.2 1.4 0.8 2 1.9 2 3.4 0 2.1-0.6 4.6-4.9 6.1-2 0.8-4.8 1.1-8.3 1.1-5.4 0-9.2-1.2-11.3-3.6q-1.6-2-2.2-6.3l-0.3-2.4h-20.1v2.7c0 8.7 3.2 15.6 9.5 20.6 6.1 4.8 14.5 7.3 25 7.3 10.3 0 18.5-2.5 24.3-7.5 5.9-5 8.9-11.5 8.9-19.2 0-7.5-2.6-13.4-7.7-17.4z"/><path class="a" d="m744.7 3.7h-28.1l-25.1 26.7v-26.7h-20.9v80.6h20.9v-26.8l4.5-4.5 22 31.3h27.1l-34.3-46.7z"/></svg>