<svg version="1.2" xmlns="http://www.w3.org/2000/svg" viewBox="0 0 112 88" width="112" height="88"><style>.a{fill:#9d9fa2}</style><path fill-rule="evenodd" class="a" d="m75 15.9c19.6-1.8 36.1 13.7 36.1 32.9v31c0 3.6-2.9 6.5-6.5 6.5h-53c-3.6 0-6.5-2.9-6.5-6.5v-30.2c0-17.2 12.8-32.1 29.9-33.7zm-16.9 32.9v23.2c0.2 0 0.4-0.1 0.7-0.1h39.3v-22.6c0-9.8-6.9-18.6-16.6-20.2-12.6-2.1-23.4 7.6-23.4 19.7z"/><path class="a" d="m103.9 1.4h-95.1c-4 0-7.3 3.2-7.3 7.2 0 4 3.3 7.2 7.3 7.2 3.9 0 7.2 3.2 7.2 7.2v56.1c0 4 3.2 7.2 7.2 7.2 4 0 7.2-3.2 7.2-7.2v-56.1c0-4 3.2-7.2 7.2-7.2h40.5 25.8c4 0 7.2-3.2 7.2-7.2 0-4-3.2-7.2-7.2-7.2z"/></svg>