<svg version="1.2" xmlns="http://www.w3.org/2000/svg" viewBox="0 0 252 88" width="252" height="88"><style>.a{fill:#9d9fa2}</style><path fill-rule="evenodd" class="a" d="m1 13.1c0-5.2 4.2-9.4 9.4-9.4h47.6c5.2 0 9.4 4.2 9.4 9.4 0 5.1-4.2 9.3-9.4 9.3h-3.7c-5.2 0-9.4 4.3-9.4 9.4v43.1c0 5.1-4.2 9.4-9.4 9.4h-2.5c-5.2 0-9.4-4.3-9.4-9.4v-43.1c0-5.1-4.2-9.4-9.4-9.4h-3.8c-5.2 0-9.4-4.2-9.4-9.3zm151-9.4h21.8l-22.7 80.6h-19.4l-9.4-46-9.5 46h-18.9l-22.9-80.6h22.5l9.9 42.8 8.4-42.8h21.1l9 43.7zm87.5 7.3c8 7.3 12.1 18.4 12.1 32.9 0 14.1-4.1 25.2-12.2 32.9-6.2 6.3-15.1 9.6-26.5 9.6-11.5 0-20.4-3.3-26.6-9.6-8.1-7.6-12.2-18.7-12.2-32.9 0-14.5 4.2-25.6 12.3-33 6.1-6.3 15-9.5 26.5-9.5 11.4 0 20.4 3.2 26.6 9.6zm-14 50.7c3.3-4 4.9-10 4.9-17.8 0-7.8-1.6-13.8-4.9-17.9-3.1-3.9-7.2-5.8-12.6-5.8-5.4 0-9.6 1.9-12.8 5.8-3.2 4.1-4.9 10.1-4.9 17.9 0 7.7 1.7 13.8 4.9 17.8 3.2 4 7.4 5.9 12.8 5.9 5.4 0 9.5-1.9 12.6-5.9z"/></svg>